<svg width="64" height="64" viewBox="0 0 32 32" fill="none" xmlns="http://www.w3.org/2000/svg">
<circle cx="16" cy="16" r="16" fill="white"/>
<path d="M9.104 19.128C9.04 19.128 9.016 19.096 9.008 18.992C8.936 17.768 8.688 15.104 8.528 13.928C8.456 13.416 8.392 13.256 8.104 13.192C8 13.168 7.944 13.12 7.96 13.072C7.976 13.024 8.056 13 8.176 13.008C8.384 13.016 8.752 13.056 9.112 13.056C9.512 13.056 9.864 12.992 10.328 13C10.408 13 10.44 13.04 10.432 13.08C10.424 13.12 10.376 13.152 10.28 13.168C9.8 13.256 9.648 13.384 9.664 13.736C9.704 14.312 9.808 15.864 9.896 16.728C9.912 16.856 9.936 16.92 9.984 16.92C10.04 16.92 10.088 16.856 10.144 16.76C10.728 15.736 11.312 14.64 11.528 14.112C11.76 13.552 11.688 13.256 11.2 13.184C11.088 13.168 11.032 13.112 11.04 13.08C11.048 13.04 11.136 13 11.272 13C11.656 13 11.856 13.056 12.16 13.056C12.456 13.056 12.624 13.016 12.84 13C12.952 12.992 13.016 13.024 13.008 13.072C12.992 13.128 12.936 13.168 12.816 13.2C12.464 13.296 12.272 13.512 11.832 14.264C11.192 15.352 10.144 17.256 9.224 19.008C9.184 19.096 9.136 19.128 9.104 19.128ZM12.2479 19.12C11.7999 19.12 11.6639 18.768 11.9599 18.056C12.2079 17.464 12.5439 16.728 12.8799 15.904C12.9759 15.664 12.9359 15.56 12.8239 15.56C12.7039 15.56 12.4799 15.696 12.2079 15.936C12.1199 16.008 12.0799 16.056 12.0159 16.056C11.9279 16.056 11.9119 15.968 11.9839 15.888C12.5039 15.32 13.2959 14.8 13.7279 14.8C14.0959 14.8 14.2399 15.024 13.9199 15.728C13.3119 17.064 13.2559 17.16 13.0319 17.736C12.8719 18.144 12.9359 18.328 13.1119 18.328C13.3119 18.328 13.6079 18.016 13.7999 17.832C13.8639 17.768 13.8959 17.744 13.9439 17.744C14.0159 17.744 14.0319 17.824 13.9599 17.92C13.6399 18.352 12.9039 19.12 12.2479 19.12ZM13.9199 14.352C13.6079 14.352 13.4079 14.08 13.4799 13.776C13.5599 13.464 13.8879 13.208 14.1919 13.208C14.5039 13.208 14.7119 13.464 14.6319 13.776C14.5519 14.088 14.2239 14.352 13.9199 14.352ZM15.3754 19.12C14.5194 19.12 14.0554 18.384 14.3914 17.216C14.8394 15.664 16.0074 14.76 16.9274 14.76C17.6954 14.76 18.0394 15.32 17.8794 15.968C17.7754 16.392 17.6154 16.56 17.0394 16.688C16.4874 16.816 16.1354 16.88 15.8074 16.968C15.4714 17.064 15.3514 17.224 15.2954 17.52C15.1754 18.096 15.3994 18.48 15.8794 18.48C16.2154 18.48 16.6554 18.296 17.0794 17.84C17.1354 17.784 17.1674 17.744 17.2234 17.744C17.2954 17.744 17.3354 17.824 17.2554 17.928C16.7914 18.6 16.0634 19.12 15.3754 19.12ZM15.9274 16.736C16.0874 16.712 16.2954 16.656 16.4954 16.576C16.7354 16.472 16.9034 16.312 17.0074 15.936C17.1834 15.304 16.9914 15.04 16.7274 15.04C16.4314 15.04 16.0154 15.328 15.7594 15.968C15.5034 16.576 15.6154 16.784 15.9274 16.736ZM18.8391 19.12C18.2871 19.12 17.9431 18.728 18.1591 17.936C18.3271 17.336 18.7351 16.552 18.9191 16.096C19.1111 15.656 19.0631 15.56 18.9511 15.56C18.8311 15.56 18.6071 15.696 18.3351 15.936C18.2471 16.008 18.2071 16.056 18.1431 16.056C18.0551 16.056 18.0471 15.96 18.1191 15.88C18.6391 15.312 19.4231 14.8 19.8551 14.8C20.2231 14.8 20.3751 15.032 20.0711 15.672C19.7111 16.44 19.3271 17.272 19.2231 17.728C19.1191 18.12 19.2551 18.36 19.5751 18.36C19.7751 18.36 20.0551 18.216 20.1911 18.12C20.3591 18 20.4231 17.912 20.4311 17.8C20.4391 17.704 20.3991 17.552 20.3911 17.328C20.3751 17.056 20.3991 16.68 20.5751 16.12C20.7911 15.44 21.2711 14.92 21.7111 14.92C22.0951 14.92 22.4151 15.32 22.2311 16.08C22.1031 16.576 21.8391 17.008 21.4231 17.384C21.2311 17.56 21.2631 17.68 21.4231 17.928C21.6071 18.216 21.8471 18.392 22.1271 18.392C22.6391 18.392 23.1031 17.88 23.2791 17.256C23.3911 16.832 23.3591 16.44 23.1591 16.096C22.9191 15.688 22.6871 15.52 22.7351 15.208C22.7751 14.952 23.0311 14.768 23.2311 14.768C23.6871 14.768 23.8311 15.744 23.5991 16.832C23.2791 18.312 22.5031 19.12 21.7031 19.12C21.3511 19.12 20.9751 18.944 20.6551 18.4C20.5991 18.312 20.5431 18.264 20.4871 18.264C20.4231 18.264 20.3751 18.32 20.3031 18.384C19.7511 18.856 19.3111 19.12 18.8391 19.12ZM21.1911 17.304C21.2551 17.304 21.3511 17.224 21.4711 17.048C21.6471 16.816 21.7431 16.496 21.7831 16.256C21.8231 15.84 21.6551 15.376 21.3751 15.376C21.1831 15.376 21.0071 15.544 20.9111 15.936C20.8231 16.304 20.9191 16.72 21.0151 17.048C21.0711 17.224 21.1111 17.304 21.1911 17.304Z" fill="black"/>
</svg>
